<svg xmlns="http://www.w3.org/2000/svg" xmlns:xlink="http://www.w3.org/1999/xlink" width="1342" height="1311" viewBox="0 0 1342 1311"><defs><clipPath id="b"><rect width="1342" height="1311"/></clipPath></defs><g id="a" clip-path="url(#b)"><rect width="1342" height="1311" fill="#262636"/><g transform="translate(0 -90)"><g transform="translate(-34 118)" fill="#81879e" stroke="#707070" stroke-width="1"><circle cx="614.5" cy="614.5" r="614.5" stroke="none"/><circle cx="614.5" cy="614.5" r="614" fill="none"/></g><g transform="translate(134 118)" fill="none" stroke="#f3f3fa" stroke-width="6"><circle cx="614.5" cy="614.5" r="614.5" stroke="none"/><circle cx="614.5" cy="614.5" r="611.5" fill="none"/></g><text transform="translate(343 292)" fill="#f3f3fa" font-size="123" font-family="Quicksand-Bold, Quicksand" font-weight="700" letter-spacing="0.352em"><tspan x="0" y="123">TWILIGHT </tspan><tspan x="0" y="350">OF </tspan></text><text transform="translate(342 768)" fill="#f3f3fa" font-size="119" font-family="Quicksand-Bold, Quicksand" font-weight="700" letter-spacing="0.352em"><tspan x="0" y="119">THE</tspan><tspan x="0" y="346">BOTS</tspan></text></g><g transform="translate(-121 -394)"><circle cx="46" cy="46" r="46" transform="translate(926 941)" fill="#fff"/><g transform="translate(1040 941)" fill="none" stroke="#fff" stroke-width="5"><circle cx="46" cy="46" r="46" stroke="none"/><circle cx="46" cy="46" r="43.5" fill="none"/></g><circle cx="46" cy="46" r="46" transform="translate(1154 941)" fill="#fff"/><g transform="translate(1268 941)" fill="none" stroke="#fff" stroke-width="5"><circle cx="46" cy="46" r="46" stroke="none"/><circle cx="46" cy="46" r="43.5" fill="none"/></g></g></g></svg>